<?xml version="1.0" encoding="UTF-8"?>
<svg id="Layer_2" data-name="Layer 2" xmlns="http://www.w3.org/2000/svg" viewBox="0 0 383.2 515.56">
  <g id="Layer_1-2" data-name="Layer 1">
    <g>
      <path fill="#1a1a1a" d="M340.64,127.88h-65.59c-2.45,0-4.41-1.97-4.41-4.4s1.96-4.4,4.41-4.4h65.59c2.43,0,4.4,1.97,4.4,4.4s-1.97,4.4-4.4,4.4Z"/>
      <path fill="#1a1a1a" d="M377.79,110.18h-85.14c-2.44,0-4.4-1.97-4.4-4.4s1.96-4.4,4.4-4.4h85.14c2.43,0,4.4,1.97,4.4,4.4s-1.97,4.4-4.4,4.4Z"/>
      <path fill="#1a1a1a" d="M377.84,145.57h-85.13c-2.45,0-4.41-1.97-4.41-4.4s1.96-4.4,4.41-4.4h85.13c2.43,0,4.4,1.97,4.4,4.4s-1.97,4.4-4.4,4.4Z"/>
      <path fill="#1a1a1a" d="M108.16,127.88H42.56c-2.43,0-4.4-1.97-4.4-4.4s1.97-4.4,4.4-4.4H108.16c2.43,0,4.4,1.97,4.4,4.4s-1.97,4.4-4.4,4.4Z"/>
      <path fill="#1a1a1a" d="M90.54,145.57H5.41c-2.43,0-4.4-1.97-4.4-4.4s1.97-4.4,4.4-4.4H90.54c2.43,0,4.4,1.97,4.4,4.4s-1.97,4.4-4.4,4.4Z"/>
      <path fill="#1a1a1a" d="M90.54,110.18H5.41c-2.43,0-4.4-1.97-4.4-4.4s1.97-4.4,4.4-4.4H90.54c2.43,0,4.4,1.97,4.4,4.4s-1.97,4.4-4.4,4.4Z"/>
      <polygon fill="#1a1a1a" points="229.03 352.47 264.85 340.77 257.95 305.97 225.26 316.65 229.03 352.47"/>
      <polygon fill="#1a1a1a" points="216.7 235.38 220.47 271.2 256.29 259.5 248.29 225.06 216.7 235.38"/>
      <polygon fill="#1a1a1a" points="216.7 235.38 126.34 264.89 129.79 300.81 220.47 271.2 216.7 235.38"/>
      <polygon fill="#1a1a1a" points="225.25 316.65 117.45 351.86 120.12 388.04 229.03 352.47 225.25 316.65"/>
      <path fill="#1a1a1a" d="M317.24,444.3c-18.16,18.91-40.53,33.74-65.62,42.97,24.99-9.23,47.3-24.04,65.41-42.91,.07-.02,.14-.04,.21-.05Z"/>
      <path fill="#1a1a1a" d="M257.39,144.16v-48.12h8.36c4.86,0,8.81-3.94,8.81-8.8s-3.95-8.8-8.81-8.8h-8.96c-3.93-29.23-27.14-52.39-56.38-56.32V8.8c0-4.87-3.94-8.8-8.8-8.8s-8.81,3.93-8.81,8.8v13.31c-29.23,3.93-52.39,27.09-56.32,56.32h-9.02c-4.86,0-8.8,3.93-8.8,8.8s3.94,8.8,8.8,8.8h8.36v48.12C52.5,171.07,0,241.45,0,323.97c0,105.64,85.95,191.58,191.6,191.58s191.6-85.94,191.6-191.58c0-82.52-52.5-152.9-125.81-179.82ZM191.6,39.05c23.56,0,43.22,17,47.37,39.38h-94.74c4.14-22.38,23.81-39.38,47.37-39.38Zm48.18,56.99v54.88h-20.38v-54.88h20.38Zm-37.99,0v54.88h-20.38v-54.88h20.38Zm-58.37,0h20.38v54.88h-20.38v-54.88Zm-17.15,72.49h130.68v9.04H126.27v-9.04Zm16.28,26.65h98.11l24.22,236.1c-12.16-1.48-25.44-4.26-39.79-8.82-22.96-7.3-40.94-16.41-56.8-24.45-15.76-7.99-29.95-15.18-45.24-18.66l19.5-184.16ZM33.48,396.15c-.88-1.92-1.74-3.85-2.55-5.81-8.54-20.46-13.32-42.85-13.32-66.37,0-65.89,36.9-123.16,91.04-152.65v15.05c0,4.87,3.94,8.8,8.8,8.8h7.38l-19.27,181.97s-.1,0-.14,0c-20.77-.41-42.73,6.84-69.85,23.24l-2.1-4.22Zm275.11,56.42c-16.43,14.97-35.73,26.84-56.97,34.69-1.7,.63-3.4,1.22-5.12,1.8-1.33,.45-2.67,.87-4.01,1.28-.7,.22-1.41,.43-2.11,.63-15.48,4.54-31.84,6.97-48.77,6.97-.56,0-1.11,0-1.67-.01-.49,0-.98-.01-1.46-.02-.09,0-.18,0-.26,0-.54,0-1.08-.02-1.61-.04-58.58-1.58-109.97-32.05-140.39-77.67-1-1.48-1.96-2.99-2.91-4.51,55.25-33.87,78.01-22.34,117.24-2.44,16.44,8.34,35.07,17.79,59.36,25.5,25.38,8.07,47.8,10.98,66.94,10.98,9.83,0,18.78-.77,26.84-2-1.67,1.64-3.36,3.26-5.09,4.83Zm-25.81-19.99l-24.41-237.41h7.38c4.86,0,8.81-3.94,8.81-8.8v-15.05c54.14,29.49,91.04,86.77,91.04,152.65,0,30.21-7.88,58.57-21.51,83.35-.38,.69-.76,1.37-1.15,2.06-1.36,2.23-2.9,4.51-4.42,6.66-.22,.26-.44,.53-.67,.79l-7.28,9.62c-11.98,3.62-28.01,6.59-47.79,6.13Z"/>
    </g>
  </g>
</svg> 