<?xml version="1.0" encoding="UTF-8"?>
<svg xmlns="http://www.w3.org/2000/svg" xmlns:xlink="http://www.w3.org/1999/xlink" width="80px" height="80px" viewBox="0 0 80 80" version="1.1">
<g id="surface1">
<path style=" stroke:none;fill-rule:nonzero;fill:rgb(86.27451%,94.509804%,98.823529%);fill-opacity:1;" d="M 40.320312 22.398438 C 24.960938 22.398438 12.558594 34.800781 12.558594 50.160156 C 12.558594 65.519531 24.960938 77.921875 40.320312 77.921875 C 55.679688 77.921875 68.078125 65.519531 68.078125 50.160156 C 68.078125 34.800781 55.679688 22.398438 40.320312 22.398438 Z M 40.320312 22.398438 "/>
<path style=" stroke:none;fill-rule:nonzero;fill:rgb(90.196078%,89.803922%,89.019608%);fill-opacity:1;" d="M 48.960938 29.199219 L 31.679688 29.199219 L 27.519531 66.960938 L 53.121094 66.960938 Z M 48.960938 29.199219 "/>
<path style=" stroke:none;fill-rule:nonzero;fill:rgb(90.196078%,89.803922%,89.019608%);fill-opacity:1;" d="M 31.679688 14.160156 C 31.679688 9.359375 35.519531 5.519531 40.320312 5.519531 C 45.121094 5.519531 48.960938 9.359375 48.960938 14.160156 Z M 31.679688 14.160156 "/>
<path style=" stroke:none;fill-rule:nonzero;fill:rgb(90.196078%,89.803922%,89.019608%);fill-opacity:1;" d="M 29.121094 25.199219 L 51.601562 25.199219 L 51.601562 29.28125 L 29.121094 29.28125 Z M 29.121094 25.199219 "/>
<path style=" stroke:none;fill-rule:nonzero;fill:rgb(100%,100%,100%);fill-opacity:1;" d="M 31.679688 14.160156 L 48.960938 14.160156 L 48.960938 25.199219 L 31.679688 25.199219 Z M 31.679688 14.160156 "/>
<path style=" stroke:none;fill-rule:nonzero;fill:rgb(98.431373%,75.686275%,6.666667%);fill-opacity:1;" d="M 62.960938 20.320312 L 53.039062 20.320312 C 52.640625 20.320312 52.398438 20 52.398438 19.679688 C 52.398438 19.28125 52.71875 19.039062 53.039062 19.039062 L 62.960938 19.039062 C 63.359375 19.039062 63.601562 19.359375 63.601562 19.679688 C 63.601562 20.078125 63.359375 20.320312 62.960938 20.320312 Z M 62.960938 20.320312 "/>
<path style=" stroke:none;fill-rule:nonzero;fill:rgb(98.431373%,75.686275%,6.666667%);fill-opacity:1;" d="M 68.558594 17.679688 L 55.679688 17.679688 C 55.28125 17.679688 55.039062 17.359375 55.039062 17.039062 C 55.039062 16.640625 55.359375 16.398438 55.679688 16.398438 L 68.640625 16.398438 C 69.039062 16.398438 69.28125 16.71875 69.28125 17.039062 C 69.28125 17.359375 68.960938 17.679688 68.558594 17.679688 Z M 68.558594 17.679688 "/>
<path style=" stroke:none;fill-rule:nonzero;fill:rgb(98.431373%,75.686275%,6.666667%);fill-opacity:1;" d="M 68.640625 23.039062 L 55.679688 23.039062 C 55.28125 23.039062 55.039062 22.71875 55.039062 22.398438 C 55.039062 22 55.359375 21.761719 55.679688 21.761719 L 68.640625 21.761719 C 69.039062 21.761719 69.28125 22.078125 69.28125 22.398438 C 69.28125 22.71875 68.960938 23.039062 68.640625 23.039062 Z M 68.640625 23.039062 "/>
<path style=" stroke:none;fill-rule:nonzero;fill:rgb(98.431373%,75.686275%,6.666667%);fill-opacity:1;" d="M 27.679688 20.320312 L 17.679688 20.320312 C 17.28125 20.320312 17.039062 20 17.039062 19.679688 C 17.039062 19.28125 17.359375 19.039062 17.679688 19.039062 L 27.601562 19.039062 C 28 19.039062 28.238281 19.359375 28.238281 19.679688 C 28.320312 20.078125 28.078125 20.320312 27.679688 20.320312 Z M 27.679688 20.320312 "/>
<path style=" stroke:none;fill-rule:nonzero;fill:rgb(98.431373%,75.686275%,6.666667%);fill-opacity:1;" d="M 24.960938 23.039062 L 12.078125 23.039062 C 11.679688 23.039062 11.441406 22.71875 11.441406 22.398438 C 11.441406 22 11.761719 21.761719 12.078125 21.761719 L 25.039062 21.761719 C 25.441406 21.761719 25.679688 22.078125 25.679688 22.398438 C 25.679688 22.71875 25.359375 23.039062 24.960938 23.039062 Z M 24.960938 23.039062 "/>
<path style=" stroke:none;fill-rule:nonzero;fill:rgb(98.431373%,75.686275%,6.666667%);fill-opacity:1;" d="M 24.960938 17.679688 L 12.078125 17.679688 C 11.679688 17.679688 11.441406 17.359375 11.441406 17.039062 C 11.441406 16.640625 11.761719 16.398438 12.078125 16.398438 L 25.039062 16.398438 C 25.441406 16.398438 25.679688 16.71875 25.679688 17.039062 C 25.679688 17.359375 25.359375 17.679688 24.960938 17.679688 Z M 24.960938 17.679688 "/>
<path style=" stroke:none;fill-rule:nonzero;fill:rgb(79.215686%,78.431373%,76.862745%);fill-opacity:1;" d="M 51.679688 67.039062 L 53.121094 66.960938 L 48.960938 29.199219 L 43.359375 29.199219 L 47.359375 67.121094 L 50.480469 67.039062 L 51.761719 67.839844 Z M 51.679688 67.039062 "/>
<path style=" stroke:none;fill-rule:nonzero;fill:rgb(80.784314%,12.54902%,15.686275%);fill-opacity:1;" d="M 46 54.480469 L 51.441406 52.640625 L 50.398438 47.359375 L 45.441406 49.039062 Z M 46 54.480469 "/>
<path style=" stroke:none;fill-rule:nonzero;fill:rgb(80.784314%,12.54902%,15.686275%);fill-opacity:1;" d="M 44.160156 36.640625 L 44.71875 42.078125 L 50.160156 40.320312 L 48.960938 35.121094 Z M 44.160156 36.640625 "/>
<path style=" stroke:none;fill-rule:nonzero;fill:rgb(79.215686%,78.431373%,76.862745%);fill-opacity:1;" d="M 40.320312 5.519531 C 39.679688 5.519531 39.121094 5.601562 38.558594 5.679688 C 42.480469 6.480469 45.441406 10 45.441406 14.160156 L 48.960938 14.160156 C 48.960938 9.441406 45.121094 5.519531 40.320312 5.519531 Z M 40.320312 5.519531 "/>
<path style=" stroke:none;fill-rule:nonzero;fill:rgb(92.54902%,21.568627%,21.568627%);fill-opacity:1;" d="M 44.160156 36.640625 L 30.398438 41.121094 L 30.960938 46.640625 L 44.71875 42.078125 Z M 44.160156 36.640625 "/>
<path style=" stroke:none;fill-rule:nonzero;fill:rgb(92.54902%,21.568627%,21.568627%);fill-opacity:1;" d="M 45.441406 49.039062 L 29.121094 54.320312 L 29.519531 59.839844 L 46 54.480469 Z M 45.441406 49.039062 "/>
<path style=" stroke:none;fill-rule:nonzero;fill:rgb(36.862745%,67.45098%,83.921569%);fill-opacity:1;" d="M 59.441406 68.398438 C 54.640625 73.441406 47.839844 76.558594 40.320312 76.558594 C 30.800781 76.558594 22.398438 71.519531 17.761719 64 C 30.960938 56 32.800781 62.960938 44.238281 67.199219 C 50.960938 69.679688 56.160156 69.199219 59.441406 68.398438 Z M 59.441406 68.398438 "/>
<path style=" stroke:none;fill-rule:nonzero;fill:rgb(36.862745%,67.45098%,83.921569%);fill-opacity:1;" d="M 59.441406 68.398438 C 56.71875 71.28125 53.28125 73.519531 49.519531 74.960938 C 53.28125 73.519531 56.640625 71.28125 59.441406 68.398438 C 59.359375 68.398438 59.359375 68.398438 59.441406 68.398438 Z M 59.441406 68.398438 "/>
<path style=" stroke:none;fill-rule:nonzero;fill:rgb(17.647059%,27.45098%,44.313725%);fill-opacity:1;" d="M 50.320312 22.800781 L 50.320312 15.519531 L 51.601562 15.519531 C 52.320312 15.519531 52.960938 14.960938 52.960938 14.160156 C 52.960938 13.441406 52.398438 12.800781 51.601562 12.800781 L 50.238281 12.800781 C 49.601562 8.398438 46.078125 4.878906 41.679688 4.320312 L 41.679688 2.320312 C 41.679688 1.601562 41.121094 0.960938 40.320312 0.960938 C 39.601562 0.960938 38.960938 1.519531 38.960938 2.320312 L 38.960938 4.320312 C 34.558594 4.878906 31.039062 8.398438 30.398438 12.878906 L 29.039062 12.878906 C 28.320312 12.878906 27.679688 13.441406 27.679688 14.238281 C 27.679688 14.960938 28.238281 15.601562 29.039062 15.601562 L 30.320312 15.601562 L 30.320312 22.878906 C 19.199219 26.878906 11.28125 37.601562 11.28125 50.160156 C 11.28125 66.160156 24.320312 79.199219 40.398438 79.199219 C 56.398438 79.199219 69.519531 66.160156 69.519531 50.160156 C 69.441406 37.601562 61.441406 26.878906 50.320312 22.800781 Z M 40.320312 6.878906 C 43.921875 6.878906 46.878906 9.441406 47.519531 12.878906 L 33.121094 12.878906 C 33.761719 9.441406 36.800781 6.878906 40.320312 6.878906 Z M 47.679688 15.519531 L 47.679688 23.839844 L 44.558594 23.839844 L 44.558594 15.519531 Z M 41.921875 15.519531 L 41.921875 23.839844 L 38.800781 23.839844 L 38.800781 15.519531 Z M 33.039062 15.519531 L 36.160156 15.519531 L 36.160156 23.839844 L 33.039062 23.839844 Z M 30.398438 26.558594 L 50.238281 26.558594 L 50.238281 27.921875 L 30.398438 27.921875 Z M 32.878906 30.558594 L 47.761719 30.558594 L 51.441406 66.398438 C 49.601562 66.160156 47.601562 65.761719 45.441406 65.039062 C 41.921875 64 39.199219 62.558594 36.800781 61.359375 C 34.398438 60.160156 32.238281 59.039062 29.921875 58.558594 Z M 16.320312 61.039062 C 16.160156 60.71875 16.078125 60.480469 15.921875 60.160156 C 14.640625 57.039062 13.921875 53.679688 13.921875 50.078125 C 13.921875 40.078125 19.519531 31.359375 27.761719 26.878906 L 27.761719 29.199219 C 27.761719 29.921875 28.320312 30.558594 29.121094 30.558594 L 30.238281 30.558594 L 27.28125 58.160156 C 24.160156 58.078125 20.800781 59.199219 16.640625 61.679688 Z M 58.078125 69.679688 C 55.601562 71.921875 52.640625 73.761719 49.441406 74.960938 C 49.199219 75.039062 48.960938 75.121094 48.640625 75.199219 C 48.398438 75.28125 48.238281 75.359375 48 75.359375 C 47.921875 75.359375 47.761719 75.441406 47.679688 75.441406 C 45.359375 76.160156 42.878906 76.480469 40.238281 76.480469 C 40.160156 76.480469 40.078125 76.480469 40 76.480469 C 39.921875 76.480469 39.839844 76.480469 39.761719 76.480469 C 39.761719 76.480469 39.761719 76.480469 39.679688 76.480469 C 39.601562 76.480469 39.519531 76.480469 39.441406 76.480469 C 30.558594 76.238281 22.71875 71.601562 18.160156 64.71875 C 18 64.480469 17.839844 64.238281 17.679688 64 C 26.078125 58.878906 29.519531 60.640625 35.441406 63.601562 C 37.921875 64.878906 40.800781 66.320312 44.480469 67.441406 C 48.320312 68.640625 51.761719 69.121094 54.640625 69.121094 C 56.160156 69.121094 57.519531 69.039062 58.71875 68.800781 C 58.640625 69.121094 58.320312 69.441406 58.078125 69.679688 Z M 54.160156 66.640625 L 50.480469 30.640625 L 51.601562 30.640625 C 52.320312 30.640625 52.960938 30.078125 52.960938 29.28125 L 52.960938 26.960938 C 61.199219 31.441406 66.800781 40.160156 66.800781 50.160156 C 66.800781 54.71875 65.601562 59.039062 63.519531 62.800781 C 63.441406 62.878906 63.441406 63.039062 63.359375 63.121094 C 63.121094 63.441406 62.960938 63.839844 62.71875 64.160156 C 62.71875 64.160156 62.640625 64.238281 62.640625 64.320312 L 61.519531 65.761719 C 59.601562 66.238281 57.199219 66.640625 54.160156 66.640625 Z M 54.160156 66.640625 "/>
</g>
</svg> 